<svg xmlns="http://www.w3.org/2000/svg" viewBox="0 0 32 32"><rect width="32" height="32" rx="4.5" fill="#7e2419"/><path d="M3.13 8.03 L7.78 14.76 L12.42 8.03 L9.29 8.03 L7.78 10.16 L6.26 8.03 Z" fill="#f6f1ea"/><path d="M11.35 8.03 L16.00 14.76 L20.65 8.03 L17.52 8.03 L16.00 10.16 L14.48 8.03 Z" fill="#f6f1ea"/><path d="M19.58 8.03 L24.22 14.76 L28.87 8.03 L25.74 8.03 L24.22 10.16 L22.71 8.03 Z" fill="#f6f1ea"/><path d="M3.13 17.24 L7.78 23.97 L12.42 17.24 L9.29 17.24 L7.78 19.36 L6.26 17.24 Z" fill="#f6f1ea"/><path d="M11.35 17.24 L16.00 23.97 L20.65 17.24 L17.52 17.24 L16.00 19.36 L14.48 17.24 Z" fill="#f6f1ea"/><path d="M19.58 17.24 L24.22 23.97 L28.87 17.24 L25.74 17.24 L24.22 19.36 L22.71 17.24 Z" fill="#f6f1ea"/></svg>
